<?xml version="1.0"?>
<svg xmlns="http://www.w3.org/2000/svg" xmlns:xlink="http://www.w3.org/1999/xlink" version="1.1" id="Capa_1" x="0px" y="0px" viewBox="0 0 497.694 497.694" style="enable-background:new 0 0 497.694 497.694;" xml:space="preserve" width="512px" height="512px"><g><g>
	<g>
		<g>
			<path d="M237.929,96h-36.894V77.176c0-27.859-22.588-50.447-51.2-50.447c-27.859,0-50.447,22.588-50.447,50.447V96H61.741     c-4.518,0-7.529,3.012-7.529,7.529v146.823c0.753,14.306,12.8,26.353,27.106,26.353h138.541c13.553,0,24.847-9.788,25.6-23.341     c0-0.753,0-0.753,0-1.506V103.529C245.459,99.012,242.447,96,237.929,96z M193.506,128.376c3.012,0,5.271,2.259,5.271,5.271     s-2.259,5.271-5.271,5.271s-5.271-2.259-5.271-5.271C188.235,130.635,190.494,128.376,193.506,128.376z M115.2,77.176     c0-19.576,15.812-35.388,35.388-35.388c19.576,0,36.141,15.812,36.141,35.388V96H115.2V77.176z M106.165,128.376     c3.765,0,6.024,2.259,6.024,5.271s-2.259,5.271-5.271,5.271c-3.012,0-5.271-2.259-5.271-5.271     C101.647,130.635,103.906,128.376,106.165,128.376z M231.153,250.353v0.753c0,6.024-5.271,10.541-11.294,10.541H81.318     c-6.023,0-11.294-5.271-11.294-11.294V111.059h30.118v3.765c-7.529,3.012-12.8,9.788-12.8,18.823     c0,11.294,9.035,20.329,20.329,20.329S128,144.941,128,133.647c0-8.282-5.271-15.812-12.8-18.823v-3.765h71.529v3.765     c-7.529,3.012-12.8,9.788-12.8,18.823c0,11.294,9.035,20.329,20.329,20.329c11.294,0,20.329-9.035,20.329-20.329     c0-8.282-5.271-15.812-12.8-18.823v-3.765h29.365V250.353z" data-original="#000000" class="active-path" data-old_color="#670D42" fill="#FFFCFD"/>
			<path d="M472.094,0.377H24.847C11.294,0.377,0,11.671,0,25.224v344.094c0,13.553,11.294,24.847,24.847,24.847h161.129     l-23.341,43.671h-24.847c-4.518,0-7.529,3.012-7.529,7.529v44.424c0,4.518,3.012,7.529,7.529,7.529h222.118     c4.518,0,7.529-3.012,7.529-7.529v-44.424c0-4.518-3.012-7.529-7.529-7.529h-24.847l-23.341-43.671h161.129     c13.553,0,24.847-11.294,24.847-24.847V25.224C496.941,11.671,485.647,0.377,472.094,0.377z M352.376,452.894v29.365H145.318     v-29.365C234.165,452.894,259.765,452.894,352.376,452.894z M316.988,437.835H179.953l23.341-43.671h90.353L316.988,437.835z      M481.882,369.318c0,6.024-4.518,9.788-9.788,9.788c-27.859,0-386.259,0-447.247,0c-5.271,0-9.788-3.765-9.788-9.788v-54.965     h466.823V369.318z M481.882,300.047H15.059V25.224c0-5.271,4.518-9.788,9.788-9.788h447.247c5.271,0,9.788,4.518,9.788,9.788     V300.047z" data-original="#000000" class="active-path" data-old_color="#670D42" fill="#FFFCFD"/>
			<path d="M248.471,370.824c13.553,0,24.847-11.294,24.847-24.847s-11.294-24.847-24.847-24.847s-24.847,11.294-24.847,24.847     S234.918,370.824,248.471,370.824z M248.471,336.188c5.271,0,9.788,4.518,9.788,9.788c0,5.271-4.518,9.788-9.788,9.788     s-9.788-4.518-9.788-9.788C238.682,340.706,243.2,336.188,248.471,336.188z" data-original="#000000" class="active-path" data-old_color="#670D42" fill="#FFFCFD"/>
			<path d="M374.965,214.212l24.094-15.812c2.259-1.506,3.765-4.518,3.012-7.529s-2.259-5.271-5.271-6.023l-110.682-30.871     c-2.259-0.753-5.271,0-7.529,2.259c-2.259,2.259-3.012,4.518-2.259,7.529l32.376,109.176c0.753,3.012,3.012,5.271,6.023,5.271     c3.012,0.753,6.024-0.753,7.529-3.012l15.812-24.094l32.376,32.376c1.506,1.506,3.012,2.259,5.271,2.259     c2.259,0,3.765-0.753,5.271-2.259l26.353-26.353c3.012-3.012,3.012-7.529,0-10.541L374.965,214.212z M375.718,268.424     l-33.882-34.635c-1.506-1.506-3.012-2.259-5.271-2.259h-0.753c-2.259,0-4.518,1.506-5.271,3.012l-12.047,18.071l-23.341-81.318     l81.318,24.094L358.4,207.435c-2.259,1.506-3.012,3.012-3.012,5.271s0.753,4.518,2.259,6.023l33.882,33.882L375.718,268.424z" data-original="#000000" class="active-path" data-old_color="#670D42" fill="#FFFCFD"/>
			<path d="M421.647,46.306H298.918c-4.518,0-7.529,3.012-7.529,7.529s3.012,7.529,7.529,7.529h122.729     c4.518,0,7.529-3.012,7.529-7.529S426.165,46.306,421.647,46.306z" data-original="#000000" class="active-path" data-old_color="#670D42" fill="#FFFCFD"/>
			<path d="M421.647,96H298.918c-4.518,0-7.529,3.012-7.529,7.529c0,4.518,3.012,7.529,7.529,7.529h122.729     c4.518,0,7.529-3.012,7.529-7.529C429.176,99.012,426.165,96,421.647,96z" data-original="#000000" class="active-path" data-old_color="#670D42" fill="#FFFCFD"/>
		</g>
	</g>
</g></g> </svg>
