<?xml version="1.0"?>
<svg xmlns="http://www.w3.org/2000/svg" xmlns:xlink="http://www.w3.org/1999/xlink" version="1.1" id="Capa_1" x="0px" y="0px" viewBox="0 0 497.227 497.227" style="enable-background:new 0 0 497.227 497.227;" xml:space="preserve" width="512px" height="512px" class=""><g><g>
	<g>
		<g>
			<path d="M481.272,242.213c-76.8,0-124.988,0-201.788,0c-2.259-12.047-11.294-21.082-23.341-24.094V104.425     c0-4.518-3.012-7.529-7.529-7.529c-4.518,0-7.529,3.012-7.529,7.529v113.694c-12.047,3.012-21.082,12.047-23.341,24.094     c-76.8,0-125.741,0-201.788,0l-2.259,4.518c-0.753,2.259-1.506,4.518-1.506,6.776v33.129c0,8.282,6.776,15.812,15.059,17.318     l39.153,5.271c0.753,0,1.506,0.753,2.259,1.506c4.518,19.576,12.8,38.4,24.094,54.965c-3.012,3.765-8.282,10.541-13.553,16.565     l-11.294,14.306c-5.271,6.776-4.518,16.565,1.506,22.588l24.094,23.341c6.024,6.023,15.812,6.776,22.588,1.506l31.624-23.341     c0.753-0.753,2.259-0.753,3.012,0c17.318,10.541,36.141,18.071,55.718,22.588c0.753,0,1.506,0.753,2.259,1.506l5.271,37.647     c0.753,3.012,1.506,6.024,3.765,8.282c3.012,3.765,8.282,6.024,13.553,6.024h33.882c5.271,0,10.541-2.259,13.553-6.024     c2.259-2.259,3.765-5.271,3.765-8.282l5.271-37.647c0-0.753,0.753-1.506,2.259-1.506c20.329-4.518,39.153-12.047,55.718-22.588     c0.753-0.753,2.259-0.753,3.012,0l30.871,22.588c7.529,5.271,17.318,4.518,24.094-1.506l23.341-22.588     c6.024-6.023,6.776-15.812,1.506-22.588l-24.094-30.118c-0.753-0.753-0.753-1.506,0-2.259     c10.541-16.565,18.823-34.635,23.341-54.212c0-0.753,0.753-1.506,2.259-1.506l39.153-5.271     c8.282-0.753,15.059-8.282,15.059-17.318v-33.129c0-2.259-0.753-4.518-1.506-6.776L481.272,242.213z M232.801,246.731     c0-8.282,7.529-14.306,15.812-14.306c8.282,0,15.059,6.023,15.812,14.306v2.259c-0.753,7.529-7.529,14.306-15.812,14.306     c-8.282,0-15.059-6.024-15.812-14.306V246.731z M151.484,257.272h67.765c3.765,12.047,15.812,21.082,29.365,21.082     c13.553,0,25.6-9.035,29.365-21.082h67.765c0.753,4.518,0.753,8.282,0.753,12.8c0,51.953-43.671,94.118-97.882,94.118     s-97.882-42.165-97.882-94.118C150.731,265.554,150.731,261.79,151.484,257.272z M469.225,286.637L469.225,286.637     c0,0.753-0.753,1.506-2.259,2.259l-39.153,5.271c-7.529,0.753-12.8,6.024-15.059,13.553     c-4.518,17.318-11.294,33.882-21.082,48.941c-3.765,6.023-3.765,14.306,0.753,19.576l24.094,30.118     c0.753,0.753,0.753,2.259,0,2.259l-23.341,22.588c-1.506,1.506-3.012,1.506-4.518,0l-30.871-22.588     c-6.024-4.518-13.553-4.518-19.576-0.753c-15.812,9.788-33.129,16.565-51.2,20.329c-7.529,1.506-12.8,7.529-13.553,14.306     l-5.271,37.647c0,0,0,0.753-0.753,0.753c0,1.506-0.753,1.506-1.506,1.506h-33.882c-0.753,0-1.506,0-2.259-0.753     c0-0.753-0.753-0.753-0.753-0.753l-5.271-37.647c-0.753-6.776-6.776-12.8-13.553-14.306c-18.071-3.765-35.388-11.294-51.2-20.329     c-6.023-3.765-14.306-3.012-19.576,0.753l-31.623,23.341c-0.753,0.753-2.259,0.753-3.765,0l-24.094-23.341     c-0.753-0.753-0.753-1.506,0-2.259l11.294-14.306c7.529-9.035,14.306-18.071,16.565-20.329l0.753-0.753     c1.506-3.012,1.506-6.776,0-9.035c-11.294-16.565-19.576-34.635-24.094-54.212c-1.506-7.529-7.529-12.047-15.059-13.553     l-39.153-5.271c-1.506,0-2.259-0.753-2.259-2.259v-28.612h108.424c-0.753,3.012-0.753,6.776-0.753,11.294     c0,60.235,50.447,109.176,112.941,109.176s112.941-48.941,112.941-109.176c0-3.765,0-8.282-0.753-12.8h108.424V286.637z" data-original="#FFFFFF" fill="#FFFFFF"/>
			<path d="M497.084,194.025C471.484,81.837,366.825,0.519,248.613,0.519S25.743,81.837,0.143,193.272     c-0.753,3.765,1.506,8.282,6.023,9.035c3.765,1.506,8.282-1.506,9.035-5.271C39.296,91.625,137.178,15.578,248.613,15.578     s210.071,76.8,233.412,182.212c0.753,3.765,3.765,6.024,7.529,6.024c0.753,0,0.753,0,1.506,0     C495.578,202.307,497.837,198.543,497.084,194.025z" data-original="#FFFFFF" fill="#FFFFFF"/>
			<path d="M248.613,70.543c4.518,0,7.529-3.012,7.529-7.529V38.166c0-4.518-3.012-7.529-7.529-7.529s-7.529,3.012-7.529,7.529v25.6     C241.084,67.531,244.096,70.543,248.613,70.543z" data-original="#FFFFFF" fill="#FFFFFF"/>
			<path d="M387.154,122.496l18.071-18.071c3.012-3.012,3.012-7.529,0-10.541c-3.012-3.012-7.529-3.012-10.541,0l-18.071,18.071     c-3.012,3.012-3.012,7.529,0,10.541C379.625,125.507,384.143,125.507,387.154,122.496z" data-original="#FFFFFF" fill="#FFFFFF"/>
			<path d="M120.613,122.496c3.012-3.012,3.012-7.529,0-10.541l-18.071-18.071c-3.012-3.012-7.529-3.012-10.541,0     c-3.012,3.012-3.012,7.529,0,10.541l18.071,18.071C112.331,125.507,117.601,125.507,120.613,122.496z" data-original="#FFFFFF" fill="#FFFFFF"/>
			<path d="M72.425,181.225c3.765,1.506,8.282,0,9.788-3.765c1.506-3.765,0-8.282-3.765-9.788l-24.094-9.788     c-3.765-1.506-8.282,0-9.788,3.765s0,8.282,3.765,9.788L72.425,181.225z" data-original="#FFFFFF" fill="#FFFFFF"/>
			<path d="M330.684,81.837l10.541-23.341c1.506-3.765,0-8.282-3.765-9.788s-8.282,0-9.788,3.765l-10.541,23.341     c-1.506,3.765,0,8.282,3.765,9.788C324.66,87.107,329.178,85.601,330.684,81.837z" data-original="#FFFFFF" fill="#FFFFFF"/>
			<path d="M175.578,85.601c3.765-1.506,5.271-6.023,3.765-9.788l-10.541-23.341c-1.506-3.765-6.023-5.271-9.788-3.765     s-5.271,6.023-3.765,9.788l10.541,23.341C167.296,85.601,171.813,87.86,175.578,85.601z" data-original="#FFFFFF" fill="#FFFFFF"/>
			<path d="M424.049,180.472l24.094-10.541c3.765-1.506,5.271-6.023,3.765-9.788c-1.506-3.765-6.024-5.271-9.788-3.765     l-23.341,9.788c-3.765,1.506-5.271,6.024-3.765,9.788C415.766,180.472,420.284,181.978,424.049,180.472z" data-original="#FFFFFF" fill="#FFFFFF"/>
		</g>
	</g>
</g></g> </svg>
